<?xml version="1.0" encoding="UTF-8"?>
<svg id="Layer_2" data-name="Layer 2" xmlns="http://www.w3.org/2000/svg" viewBox="0 0 134.39 41.24">
  <defs>
    <style>
      .cls-1 {
        fill: #fff;
      }

      .cls-2 {
        fill: #39b54a;
      }

      .cls-3 {
        fill: #231f20;
      }
    </style>
  </defs>
  <g id="Layer_1-2" data-name="Layer 1">
    <g>
      <g>
        <rect class="cls-2" width="5.12" height="41"/>
        <rect class="cls-2" width="30.75" height="5.12"/>
        <rect class="cls-2" x="35.87" width="5.12" height="5.12"/>
        <rect class="cls-2" x="35.87" y="10.25" width="5.12" height="30.75"/>
        <rect class="cls-2" y="35.87" width="41" height="5.12"/>
        <rect class="cls-2" x="10.25" y="10.25" width="20.5" height="20.5"/>
        <g>
          <rect class="cls-1" x="15.69" y="10.56" width="14.75" height="14.75"/>
          <path class="cls-2" d="m30.12,10.88v14.12h-14.12v-14.12h14.12m.63-.63h-15.38v15.38h15.38v-15.38h0Z"/>
        </g>
      </g>
      <g>
        <path class="cls-3" d="m54.39,0h6.36v21.64h8.74v5.56h-15.09V0Z"/>
        <path class="cls-3" d="m78.69,0h6.3l7.16,27.2h-6.9l-.97-5.4h-5.21l-1,5.4h-6.49L78.69,0Zm3.02,7.43l-1.75,9.5h3.45l-1.7-9.5Z"/>
        <path class="cls-3" d="m96.62,0h6.36v21.64h8.74v5.56h-15.09V0Z"/>
        <path class="cls-3" d="m120.92,0h6.3l7.16,27.2h-6.9l-.97-5.4h-5.21l-1,5.4h-6.49L120.92,0Zm3.02,7.43l-1.75,9.5h3.45l-1.7-9.5Z"/>
      </g>
      <g>
        <path class="cls-3" d="m93.83,32.11c.01.43-.3.78-.81.78-.45,0-.77-.35-.77-.78s.33-.79.8-.79.78.35.78.79Zm-1.42,8.97v-7h1.27v7h-1.27Z"/>
        <path class="cls-3" d="m95.8,35.97c0-.72-.01-1.32-.06-1.89h1.13l.07,1.16h.03c.35-.67,1.16-1.32,2.31-1.32.97,0,2.47.58,2.47,2.98v4.18h-1.27v-4.04c0-1.13-.42-2.07-1.62-2.07-.84,0-1.49.59-1.71,1.3-.06.16-.09.38-.09.59v4.21h-1.27v-5.11Z"/>
        <path class="cls-3" d="m104.14,34.08l1.37,3.93c.23.64.42,1.21.56,1.79h.04c.16-.58.36-1.16.59-1.79l1.36-3.93h1.33l-2.75,7h-1.21l-2.66-7h1.36Z"/>
        <path class="cls-3" d="m116.8,37.52c0,2.59-1.79,3.72-3.49,3.72-1.89,0-3.36-1.39-3.36-3.6,0-2.34,1.53-3.72,3.47-3.72s3.37,1.46,3.37,3.6Zm-5.55.07c0,1.53.88,2.69,2.13,2.69s2.13-1.14,2.13-2.72c0-1.19-.59-2.69-2.1-2.69s-2.16,1.39-2.16,2.72Z"/>
        <path class="cls-3" d="m119.83,32.11c.01.43-.3.78-.81.78-.45,0-.77-.35-.77-.78s.33-.79.8-.79.78.35.78.79Zm-1.42,8.97v-7h1.27v7h-1.27Z"/>
        <path class="cls-3" d="m126.79,40.82c-.33.17-1.07.41-2.01.41-2.11,0-3.49-1.43-3.49-3.57s1.48-3.72,3.76-3.72c.75,0,1.42.19,1.76.36l-.29.98c-.3-.17-.78-.33-1.48-.33-1.61,0-2.47,1.19-2.47,2.65,0,1.62,1.04,2.62,2.43,2.62.72,0,1.2-.19,1.56-.35l.22.95Z"/>
        <path class="cls-3" d="m128.9,37.81c.03,1.72,1.13,2.43,2.4,2.43.91,0,1.46-.16,1.94-.36l.22.91c-.45.2-1.21.43-2.33.43-2.16,0-3.44-1.42-3.44-3.53s1.24-3.78,3.28-3.78c2.29,0,2.89,2.01,2.89,3.3,0,.26-.03.46-.04.59h-4.92Zm3.73-.91c.01-.81-.33-2.07-1.76-2.07-1.29,0-1.85,1.19-1.95,2.07h3.72Z"/>
      </g>
    </g>
  </g>
</svg>